<svg width="45" height="45" viewBox="0 0 45 45" fill="none" xmlns="http://www.w3.org/2000/svg">
<g clip-path="url(#clip0)">
<path d="M19.786 31.2011V33.5213L19.2249 33.0681C19.1382 32.998 17.0756 31.3234 14.984 28.9221C12.0987 25.6094 10.6357 22.6359 10.6357 20.0842V19.8313C10.6357 14.7859 14.7405 10.6811 19.786 10.6811C24.8314 10.6811 28.9362 14.7859 28.9362 19.8313V20.0842C28.9362 20.2985 28.9248 20.5161 28.9042 20.7363L27.1148 19.1039C26.7482 15.3831 23.6015 12.4665 19.786 12.4665C15.7251 12.4665 12.4211 15.7704 12.4211 19.8313V20.0842C12.4211 24.3961 17.9768 29.616 19.786 31.2011ZM25.276 29.9187H27.9541V27.2407H25.276V29.9187ZM19.786 16.0373C21.8779 16.0373 23.58 17.7393 23.58 19.8313C23.58 21.9233 21.8779 23.6253 19.786 23.6253C17.694 23.6253 15.992 21.9233 15.992 19.8313C15.992 17.7393 17.694 16.0373 19.786 16.0373ZM19.786 17.8227C18.6784 17.8227 17.7774 18.7237 17.7774 19.8313C17.7774 20.9387 18.6784 21.8399 19.786 21.8399C20.8934 21.8399 21.7946 20.9387 21.7946 19.8313C21.7946 18.7237 20.8934 17.8227 19.786 17.8227ZM32.3416 28.7055L31.8397 28.2476V31.1139C31.8397 32.4485 30.7537 33.5343 29.4191 33.5343H23.7665C22.4318 33.5343 21.3459 32.4485 21.3459 31.1139V28.2476L20.8439 28.7055L19.6407 27.3866L26.5927 21.0443L33.5448 27.3866L32.3416 28.7055ZM30.0543 26.6188L26.5927 23.461L23.1313 26.6188V31.1137C23.1313 31.464 23.4162 31.7488 23.7665 31.7488H29.4191C29.7694 31.7488 30.0543 31.464 30.0543 31.1137V26.6188Z" fill="#242424" fill-opacity="0.4"/>
</g>
<circle cx="22.5" cy="22.5" r="21.75" stroke="#242424" stroke-opacity="0.4" stroke-width="1.5"/>
<defs>
<clipPath id="clip0">
<rect width="22.9091" height="22.9091" fill="white" transform="translate(10.6357 10.6364)"/>
</clipPath>
</defs>
</svg>
