<svg width="20" height="20" viewBox="0 0 20 20" fill="none" xmlns="http://www.w3.org/2000/svg">
<path d="M20 5.27344C20 4.30418 19.2114 3.51562 18.2422 3.51562H17.6562V1.79688C17.6562 0.806094 16.8502 0 15.8594 0H4.14062C3.14984 0 2.34375 0.806094 2.34375 1.79688V3.51562H1.75781C0.788555 3.51562 0 4.30418 0 5.27344V8.21406H2.34375V17.2547H3.125V18.2422C3.125 19.2114 3.91355 20 4.88281 20H5.675C6.64426 20 7.43281 19.2114 7.43281 18.2422V17.2547H12.5672V18.2422C12.5672 19.2114 13.3558 20 14.325 20H15.1172C16.0864 20 16.875 19.2114 16.875 18.2422V17.2547H17.6562V8.21406H20V5.27344ZM4.14062 1.17188H15.8594C16.204 1.17188 16.4844 1.45227 16.4844 1.79688V2.34375H3.51562V1.79688C3.51562 1.45227 3.79602 1.17188 4.14062 1.17188ZM1.17188 7.04219V5.27344C1.17188 4.95035 1.43473 4.6875 1.75781 4.6875H2.34375V7.04219H1.17188ZM16.4844 14.9109V16.0828H12.757V13.7391H7.24293V16.0828H3.51562V14.9109H5.87574V13.7391H3.51562V11.4928C5.66883 11.8105 7.83437 11.97 10 11.97C12.1656 11.97 14.3311 11.8105 16.4844 11.4928V13.7391H14.1242V14.9109H16.4844ZM11.5852 16.0828H8.4148V14.9109H11.5852V16.0828ZM6.26094 18.2422C6.26094 18.5653 5.99809 18.8281 5.675 18.8281H4.88281C4.55973 18.8281 4.29688 18.5653 4.29688 18.2422V17.2547H6.26094V18.2422ZM15.7031 18.2422C15.7031 18.5653 15.4403 18.8281 15.1172 18.8281H14.325C14.002 18.8281 13.7391 18.5653 13.7391 18.2422V17.2547H15.7031V18.2422ZM16.4844 10.3082C12.1789 10.961 7.82113 10.961 3.51562 10.3082V3.51562H16.4844V10.3082ZM18.8281 7.04219H17.6562V4.6875H18.2422C18.5653 4.6875 18.8281 4.95035 18.8281 5.27344V7.04219Z" fill="#00760C" fill-opacity="0.85"/>
</svg>
