<svg width="50" height="50" viewBox="0 0 50 50" fill="none" xmlns="http://www.w3.org/2000/svg">
<path d="M43.333 17.4984H42.5954C43.6296 15.7286 44.1719 13.7146 44.1664 11.6648C44.1674 8.86019 43.1575 6.14918 41.3219 4.02873C39.4862 1.90828 36.9478 0.520464 34.172 0.119694C31.3961 -0.281076 28.5689 0.332049 26.2084 1.84668C23.8479 3.3613 22.1125 5.67594 21.3201 8.3663C20.0222 7.1271 18.3889 6.29632 16.6231 5.97708C14.8572 5.65783 13.0364 5.86418 11.3868 6.57051C9.73714 7.27684 8.33123 8.45204 7.34355 9.95028C6.35587 11.4485 5.82991 13.2038 5.83093 14.9983C5.82998 15.8499 5.94893 16.6974 6.18429 17.5159C4.46267 17.6409 2.85663 18.4287 1.70403 19.7137C0.551443 20.9987 -0.057851 22.6806 0.00433167 24.4056C0.0665144 26.1306 0.795326 27.7643 2.03745 28.9629C3.27956 30.1615 4.93816 30.8317 6.66431 30.8324H14.1172C14.0847 30.9157 14.0497 31.0132 14.0097 31.1249L10.6937 31.6774C10.4993 31.71 10.3226 31.8104 10.1952 31.9608C10.0678 32.1113 9.99788 32.302 9.99783 32.4991V37.4994C9.99788 37.6965 10.0678 37.8873 10.1952 38.0377C10.3226 38.1882 10.4993 38.2886 10.6937 38.3211L14.0089 38.8736C14.1483 39.282 14.3097 39.6826 14.4922 40.0737C14.0822 40.5979 13.4822 41.4396 12.5346 42.7646C12.4201 42.9252 12.3662 43.1211 12.3825 43.3177C12.3988 43.5142 12.4843 43.6986 12.6238 43.838L16.1598 47.3749C16.2994 47.5142 16.4838 47.5996 16.6803 47.6157C16.8769 47.6319 17.0728 47.5779 17.2332 47.4632L19.9542 45.5198C20.3359 45.7025 20.7274 45.8641 21.1268 46.004L21.6768 49.3033C21.7091 49.4979 21.8095 49.6747 21.9599 49.8023C22.1104 49.9298 22.3012 49.9999 22.4985 50H27.4988C27.696 49.9999 27.8869 49.9298 28.0373 49.8023C28.1878 49.6747 28.2881 49.4979 28.3205 49.3033L28.8705 46.004C29.2699 45.8641 29.6614 45.7025 30.0431 45.5198L32.7641 47.4632C32.9245 47.5779 33.1204 47.6319 33.3169 47.6157C33.5135 47.5996 33.6979 47.5142 33.8375 47.3749L37.3735 43.838C37.5129 43.6986 37.5984 43.5142 37.6148 43.3177C37.6311 43.1211 37.5772 42.9252 37.4627 42.7646L35.5192 40.0445C35.7018 39.6625 35.8635 39.2708 36.0034 38.8711L39.3036 38.3211C39.498 38.2886 39.6746 38.1882 39.8021 38.0377C39.9295 37.8873 39.9994 37.6965 39.9995 37.4994V32.4991C39.9994 32.302 39.9295 32.1113 39.8021 31.9608C39.6746 31.8104 39.498 31.71 39.3036 31.6774L36.0034 31.1274C35.9684 31.0266 35.9201 30.9316 35.8817 30.8324H43.333C45.1012 30.8324 46.797 30.13 48.0473 28.8797C49.2976 27.6294 50 25.9336 50 24.1654C50 22.3972 49.2976 20.7014 48.0473 19.4511C46.797 18.2008 45.1012 17.4984 43.333 17.4984ZM38.3327 33.205V36.7935L35.2309 37.3102C35.0772 37.3359 34.9338 37.4042 34.817 37.5074C34.7002 37.6105 34.6146 37.7443 34.57 37.8936C34.3793 38.5284 34.1258 39.1425 33.8133 39.727C33.7397 39.864 33.7059 40.0189 33.7158 40.1742C33.7257 40.3294 33.7788 40.4788 33.8691 40.6054L35.6959 43.1622L33.1591 45.7006L30.6006 43.8739C30.4743 43.7828 30.3249 43.7292 30.1696 43.7192C30.0142 43.7092 29.8592 43.7431 29.7222 43.8172C29.1378 44.1299 28.5236 44.3834 27.8888 44.5739C27.7395 44.6185 27.6057 44.7041 27.5026 44.8209C27.3995 44.9377 27.3312 45.0811 27.3054 45.2348L26.7929 48.3333H23.2044L22.6877 45.2314C22.662 45.0778 22.5936 44.9344 22.4905 44.8176C22.3874 44.7007 22.2536 44.6152 22.1043 44.5706C21.4695 44.3801 20.8553 44.1266 20.2709 43.8139C20.1339 43.7398 19.9789 43.7059 19.8235 43.7159C19.6682 43.7259 19.5188 43.7795 19.3925 43.8705L16.834 45.6973L14.2972 43.1588L16.119 40.6087C16.2114 40.4819 16.2662 40.3315 16.277 40.175C16.2877 40.0184 16.2541 39.8619 16.1798 39.7237C15.8678 39.1242 15.6101 38.4981 15.4098 37.8527C15.36 37.7128 15.2737 37.5887 15.1599 37.4934C15.046 37.398 14.9087 37.3347 14.7623 37.3102L11.6646 36.7935V33.205L14.7664 32.6883C14.9129 32.6638 15.0502 32.6006 15.164 32.5052C15.2779 32.4098 15.3642 32.2857 15.414 32.1458C15.6287 31.4913 15.8925 30.8539 16.2032 30.239C16.267 30.1047 16.2937 29.9557 16.2805 29.8075C16.2673 29.6594 16.2147 29.5175 16.1282 29.3965L14.3014 26.8397L16.8382 24.3012L19.3967 26.128C19.5232 26.2185 19.6725 26.2717 19.8278 26.2818C19.983 26.2918 20.1379 26.2581 20.2751 26.1847C20.8595 25.872 21.4737 25.6185 22.1085 25.428C22.2578 25.3834 22.3916 25.2978 22.4947 25.181C22.5978 25.0642 22.6661 24.9208 22.6919 24.7671L23.2044 21.6653H26.7929L27.3096 24.7671C27.3353 24.9208 27.4036 25.0642 27.5068 25.181C27.6099 25.2978 27.7437 25.3834 27.893 25.428C28.5278 25.6185 29.142 25.872 29.7264 26.1847C29.8635 26.2581 30.0184 26.2918 30.1737 26.2818C30.3289 26.2717 30.4782 26.2185 30.6048 26.128L33.1633 24.3012L35.7001 26.8397L33.8733 29.3965C33.7829 29.5231 33.7298 29.6725 33.72 29.8277C33.7101 29.9829 33.7439 30.1378 33.8175 30.2749C34.13 30.8593 34.3835 31.4735 34.5742 32.1083C34.6188 32.2576 34.7043 32.3914 34.8212 32.4945C34.938 32.5976 35.0814 32.6659 35.235 32.6917L38.3327 33.205ZM43.333 29.1656H36.0826L37.4635 27.2339C37.578 27.0733 37.6319 26.8774 37.6156 26.6809C37.5993 26.4843 37.5138 26.2999 37.3743 26.1605L33.8375 22.6237C33.6979 22.4843 33.5135 22.399 33.3169 22.3828C33.1204 22.3666 32.9245 22.4207 32.7641 22.5353L30.0431 24.4788C29.6614 24.2961 29.2699 24.1344 28.8705 23.9946L28.3205 20.6952C28.2881 20.5006 28.1878 20.3238 28.0373 20.1963C27.8869 20.0687 27.696 19.9986 27.4988 19.9985H22.4985C22.3012 19.9986 22.1104 20.0687 21.9599 20.1963C21.8095 20.3238 21.7091 20.5006 21.6768 20.6952L21.1268 23.9946C20.7274 24.1344 20.3359 24.2961 19.9542 24.4788L17.2332 22.5353C17.0728 22.4207 16.8769 22.3666 16.6803 22.3828C16.4838 22.399 16.2994 22.4843 16.1598 22.6237L12.6238 26.1605C12.4843 26.2999 12.3988 26.4843 12.3825 26.6809C12.3662 26.8774 12.4201 27.0733 12.5346 27.2339L13.9147 29.1656H6.66431C5.33816 29.1656 4.06632 28.6388 3.12859 27.7011C2.19085 26.7634 1.66404 25.4916 1.66404 24.1654C1.66404 22.8393 2.19085 21.5674 3.12859 20.6297C4.06632 19.692 5.33816 19.1652 6.66431 19.1652H7.36435C7.50262 19.1649 7.63867 19.1303 7.76023 19.0644C7.88179 18.9986 7.98504 18.9035 8.06069 18.7877C8.13633 18.672 8.18199 18.5392 8.19355 18.4014C8.20511 18.2637 8.1822 18.1252 8.12689 17.9984C7.71053 17.0531 7.49622 16.0312 7.49769 14.9983C7.49906 13.4095 8.00495 11.8621 8.94242 10.5793C9.87989 9.29652 11.2005 8.34457 12.7139 7.86069C14.2272 7.37682 15.8552 7.38602 17.363 7.88698C18.8708 8.38794 20.1805 9.35476 21.1034 10.6481C21.2006 10.7825 21.3357 10.8849 21.4915 10.9421C21.6472 10.9993 21.8164 11.0087 21.9775 10.9692C22.1386 10.9296 22.2843 10.8428 22.3958 10.72C22.5073 10.5972 22.5796 10.4439 22.6035 10.2797C22.9462 7.76655 24.2316 5.47768 26.1992 3.87709C28.1669 2.2765 30.6695 1.48395 33.1998 1.66009C35.7301 1.83624 38.0988 2.96791 39.8257 4.82569C41.5526 6.68348 42.5085 9.12838 42.4996 11.6648C42.5037 13.8978 41.7524 16.0665 40.3678 17.8184C40.2716 17.9415 40.2119 18.0891 40.1955 18.2445C40.1791 18.3998 40.2068 18.5566 40.2752 18.697C40.3437 18.8375 40.4503 18.9558 40.5827 19.0386C40.7152 19.1213 40.8683 19.1652 41.0245 19.1652H43.333C44.6591 19.1652 45.931 19.692 46.8687 20.6297C47.8064 21.5674 48.3332 22.8393 48.3332 24.1654C48.3332 25.4916 47.8064 26.7634 46.8687 27.7011C45.931 28.6388 44.6591 29.1656 43.333 29.1656Z" fill="black" fill-opacity="0.9"/>
<path d="M32.4991 3.33106V4.99781C34.2667 4.9998 35.9613 5.70285 37.2112 6.95272C38.4611 8.20259 39.1642 9.89722 39.1661 11.6648H40.8329C40.8305 9.4553 39.9517 7.33699 38.3893 5.77464C36.8269 4.21229 34.7086 3.33349 32.4991 3.33106Z" fill="black" fill-opacity="0.9"/>
<path d="M43.333 20.8319V22.4987C43.7751 22.4987 44.199 22.6743 44.5116 22.9868C44.8242 23.2994 44.9998 23.7234 44.9998 24.1654H46.6665C46.6665 23.2813 46.3153 22.4334 45.6902 21.8083C45.065 21.1831 44.2171 20.8319 43.333 20.8319Z" fill="black" fill-opacity="0.9"/>
<path d="M9.1645 14.9983C9.16368 15.8017 9.33029 16.5964 9.65369 17.3317L11.1804 16.6651C10.9491 16.1399 10.8302 15.5722 10.8313 14.9983C10.8326 13.8936 11.272 12.8345 12.0532 12.0533C12.8343 11.2722 13.8934 10.8328 14.9981 10.8314V9.16469C13.4515 9.16645 11.9687 9.78163 10.8751 10.8753C9.78144 11.9689 9.16626 13.4517 9.1645 14.9983Z" fill="black" fill-opacity="0.9"/>
<path d="M29.1654 32.4991H25.8319V27.4989C25.8318 27.3086 25.7665 27.1241 25.6471 26.976C25.5276 26.828 25.361 26.7252 25.175 26.6849C24.9891 26.6446 24.7949 26.6692 24.6249 26.7545C24.4548 26.8398 24.319 26.9807 24.2401 27.1539L20.0732 36.321C20.0155 36.4479 19.9906 36.5873 20.0007 36.7264C20.0108 36.8654 20.0556 36.9997 20.131 37.117C20.2065 37.2343 20.3102 37.3307 20.4326 37.3975C20.555 37.4643 20.6922 37.4993 20.8316 37.4994H24.1651V42.4996C24.165 42.6901 24.2301 42.8748 24.3496 43.0231C24.469 43.1714 24.6357 43.2743 24.8218 43.3147C24.8799 43.3269 24.9391 43.333 24.9985 43.333C25.1585 43.333 25.315 43.2869 25.4495 43.2003C25.584 43.1137 25.6907 42.9902 25.7569 42.8446L29.9238 33.6775C29.9815 33.5506 30.0065 33.4112 29.9964 33.2721C29.9863 33.1331 29.9414 32.9987 29.866 32.8815C29.7905 32.7642 29.6868 32.6678 29.5644 32.601C29.442 32.5342 29.3048 32.4992 29.1654 32.4991ZM25.8319 38.6528V36.666C25.8319 36.445 25.7441 36.233 25.5878 36.0767C25.4315 35.9204 25.2195 35.8326 24.9985 35.8326H22.1259L24.1651 31.3457V33.3325C24.1651 33.5535 24.2529 33.7655 24.4092 33.9218C24.5655 34.0781 24.7775 34.1659 24.9985 34.1659H27.8712L25.8319 38.6528Z" fill="black" fill-opacity="0.9"/>
<path d="M24.1653 23.332H25.8321V24.9988H24.1653V23.332Z" fill="black" fill-opacity="0.9"/>
<path d="M16.1544 27.3372L17.333 26.1587L18.5116 27.3372L17.333 28.5158L16.1544 27.3372Z" fill="black" fill-opacity="0.9"/>
<path d="M13.3314 34.1659H14.9982V35.8326H13.3314V34.1659Z" fill="black" fill-opacity="0.9"/>
<path d="M16.1532 42.6567L17.3318 41.4782L18.5104 42.6567L17.3318 43.8353L16.1532 42.6567Z" fill="black" fill-opacity="0.9"/>
<path d="M24.1653 44.9998H25.8321V46.6665H24.1653V44.9998Z" fill="black" fill-opacity="0.9"/>
<path d="M31.4718 42.6588L32.6504 41.4803L33.829 42.6588L32.6504 43.8374L31.4718 42.6588Z" fill="black" fill-opacity="0.9"/>
<path d="M34.9992 34.1659H36.666V35.8326H34.9992V34.1659Z" fill="black" fill-opacity="0.9"/>
<path d="M31.4741 27.3393L32.6527 26.1607L33.8312 27.3393L32.6527 28.5179L31.4741 27.3393Z" fill="black" fill-opacity="0.9"/>
</svg>
