<svg width="45" height="45" viewBox="0 0 45 45" fill="none" xmlns="http://www.w3.org/2000/svg">
<circle cx="22.5" cy="22.5" r="21.75" stroke="#242424" stroke-opacity="0.4" stroke-width="1.5"/>
<g clip-path="url(#clip0)">
<path d="M32.1977 30.1765V26.8075H30.1763V23.7213L25.7203 21.175C25.9847 20.6378 26.1336 20.0339 26.1336 19.3958C26.1336 18.4837 26.1336 15.4412 26.1336 14.0054H27.4811V17.3744H28.8287V12.6578H26.1336C25.6876 12.6578 16.4672 12.6578 16.0266 12.6578V14.0054H18.048V19.3957C18.048 20.0338 18.1968 20.6378 18.4613 21.175L14.0052 23.7213V26.8075H11.9838V30.1765H10.6362V31.5241H33.5453V30.1765H32.1977ZM28.8287 26.8075H27.4811V23.7333L28.8287 24.5033V26.8075ZM22.0908 28.6182C21.3659 27.5278 20.1264 26.8075 18.7218 26.8075H18.048V22.9632L19.2518 22.2753C20.828 23.8382 23.3776 23.8144 24.9297 22.2753L26.1336 22.9632V26.8075H25.4598C24.0551 26.8075 22.8156 27.5278 22.0908 28.6182ZM24.786 14.0054V16.0268H19.3956V14.0054H24.786ZM24.786 17.3744V19.3957C24.786 20.9265 23.4993 22.1701 21.9426 22.0867C20.5259 22.0099 19.3956 20.8325 19.3956 19.3957V17.3744H24.786ZM15.3528 24.5033L16.7004 23.7333V26.8075H15.3528V24.5033ZM13.3314 30.1765V28.1551H18.7218C19.9754 28.1551 21.0317 29.0153 21.3317 30.1765H13.3314ZM22.8498 30.1765C23.1498 29.0153 24.2062 28.1551 25.4598 28.1551H30.8501V30.1765H22.8498Z" fill="#242424" fill-opacity="0.4"/>
</g>
<defs>
<clipPath id="clip0">
<rect width="22.9091" height="22.9091" fill="white" transform="translate(10.6362 10.6364)"/>
</clipPath>
</defs>
</svg>
