<svg width="25" height="25" viewBox="0 0 25 25" fill="#283593" xmlns="http://www.w3.org/2000/svg">
<path d="M9.76562 12.4865C9.76562 13.0123 9.33933 13.4386 8.81348 13.4386C8.28762 13.4386 7.86133 13.0123 7.86133 12.4865C7.86133 11.9606 8.28762 11.5343 8.81348 11.5343C9.33933 11.5343 9.76562 11.9606 9.76562 12.4865ZM19.4475 11.5343L21.6936 9.28822L20.3125 7.9073L15.7087 12.5109L20.3125 17.1146L21.6936 15.7335L19.4475 13.4874H25V11.5343H19.4475ZM17.627 23.0577H25V25.0109H0V2.09961L13.6719 0.0488281V2.01283H17.627V7.83062L15.6738 9.78374V3.96595H13.6719V23.0577H15.6738V15.2382L17.627 17.1913V23.0577ZM11.7188 23.0577V2.31667L1.95312 3.78151V23.0577H11.7188Z" fill="black" fill-opacity="0.7"/>
</svg>
