<svg width="20" height="25" viewBox="0 0 20 25" fill="none" xmlns="http://www.w3.org/2000/svg">
<path d="M5.05663 16.8236C4.78963 16.8236 4.52862 16.9051 4.30661 17.0577C4.0846 17.2104 3.91157 17.4273 3.80939 17.6811C3.70721 17.9349 3.68048 18.2142 3.73257 18.4837C3.78466 18.7531 3.91323 19.0007 4.10204 19.1949C4.29084 19.3892 4.53139 19.5215 4.79326 19.5751C5.05514 19.6287 5.32658 19.6012 5.57326 19.496C5.81994 19.3909 6.03078 19.2129 6.17912 18.9844C6.32746 18.756 6.40664 18.4874 6.40664 18.2127C6.40623 17.8444 6.26387 17.4914 6.01078 17.2309C5.75769 16.9705 5.41455 16.8241 5.05663 16.8236ZM5.05663 18.8078C4.94224 18.8078 4.83041 18.7729 4.73529 18.7075C4.64018 18.6421 4.56604 18.5492 4.52226 18.4404C4.47849 18.3317 4.46703 18.212 4.48935 18.0966C4.51167 17.9812 4.56675 17.8751 4.64764 17.7919C4.72854 17.7087 4.8316 17.652 4.94379 17.629C5.05599 17.606 5.17229 17.6178 5.27798 17.6629C5.38367 17.7079 5.474 17.7842 5.53755 17.8821C5.60111 17.9799 5.63503 18.095 5.63503 18.2127C5.63487 18.3705 5.57388 18.5218 5.46544 18.6333C5.35701 18.7449 5.20998 18.8077 5.05663 18.8078Z" fill="#006692" fill-opacity="0.85"/>
<path d="M14.9448 16.8236C14.6778 16.8236 14.4168 16.9051 14.1948 17.0577C13.9728 17.2104 13.7997 17.4273 13.6976 17.6811C13.5954 17.9349 13.5686 18.2142 13.6207 18.4837C13.6728 18.7531 13.8014 19.0007 13.9902 19.1949C14.179 19.3892 14.4196 19.5215 14.6814 19.5751C14.9433 19.6287 15.2147 19.6012 15.4614 19.496C15.7081 19.3909 15.9189 19.2129 16.0673 18.9844C16.2156 18.756 16.2948 18.4874 16.2948 18.2127C16.2944 17.8444 16.152 17.4914 15.8989 17.2309C15.6459 16.9705 15.3027 16.8241 14.9448 16.8236ZM14.9448 18.8078C14.8304 18.8078 14.7186 18.7729 14.6235 18.7075C14.5283 18.6421 14.4542 18.5492 14.4104 18.4404C14.3667 18.3317 14.3552 18.212 14.3775 18.0966C14.3998 17.9812 14.4549 17.8751 14.5358 17.7919C14.6167 17.7087 14.7198 17.652 14.832 17.629C14.9442 17.606 15.0605 17.6178 15.1661 17.6629C15.2718 17.7079 15.3622 17.7842 15.4257 17.8821C15.4893 17.9799 15.5232 18.095 15.5232 18.2127C15.523 18.3705 15.462 18.5218 15.3536 18.6333C15.2452 18.7449 15.0981 18.8077 14.9448 18.8078Z" fill="#006692" fill-opacity="0.85"/>
<path d="M18.438 6.39937V4.70005C18.4373 4.10437 18.207 3.53327 17.7977 3.11206C17.3883 2.69084 16.8333 2.45391 16.2543 2.45324H10.3864V0.793928H14.3731C14.4755 0.793928 14.5736 0.752105 14.646 0.67766C14.7183 0.603215 14.759 0.502245 14.759 0.396964C14.759 0.291682 14.7183 0.190713 14.646 0.116268C14.5736 0.0418232 14.4755 0 14.3731 0H5.62809C5.52577 0 5.42763 0.0418232 5.35528 0.116268C5.28293 0.190713 5.24228 0.291682 5.24228 0.396964C5.24228 0.502245 5.28293 0.603215 5.35528 0.67766C5.42763 0.752105 5.52577 0.793928 5.62809 0.793928H9.61482V2.45324H3.74691C3.16798 2.45391 2.61294 2.69084 2.20357 3.11206C1.7942 3.53327 1.56392 4.10437 1.56327 4.70005V6.39906C1.14529 6.41151 0.748414 6.59082 0.456645 6.89903C0.164876 7.20724 0.00110748 7.62017 0 8.05043V9.36517C0 9.47045 0.0406472 9.57142 0.112999 9.64587C0.185351 9.72031 0.283481 9.76213 0.385802 9.76213C0.488124 9.76213 0.586254 9.72031 0.658606 9.64587C0.730958 9.57142 0.771605 9.47045 0.771605 9.36517V8.05138C0.772385 7.83153 0.854789 7.62029 1.00196 7.4609C1.14912 7.30151 1.34992 7.20601 1.56327 7.19394V19.0749C1.56419 19.6475 1.77744 20.1981 2.1595 20.6144C2.54156 21.0307 3.06362 21.2813 3.61914 21.3151L1.78611 24.3955C1.73266 24.4853 1.71608 24.5933 1.74001 24.6957C1.76394 24.7981 1.82643 24.8866 1.91373 24.9416C2.00104 24.9966 2.10599 25.0136 2.20552 24.989C2.30505 24.9644 2.39099 24.9001 2.44445 24.8102L3.58086 22.9023H5.34661C5.44893 22.9023 5.54706 22.8604 5.61941 22.786C5.69176 22.7116 5.73241 22.6106 5.73241 22.5053C5.73241 22.4 5.69176 22.2991 5.61941 22.2246C5.54706 22.1502 5.44893 22.1083 5.34661 22.1083H4.05339L4.52161 21.3217H15.4809L15.9491 22.1083H8.38025C8.27793 22.1083 8.1798 22.1502 8.10744 22.2246C8.03509 22.2991 7.99444 22.4 7.99444 22.5053C7.99444 22.6106 8.03509 22.7116 8.10744 22.786C8.1798 22.8604 8.27793 22.9023 8.38025 22.9023H16.4204L17.5556 24.8096C17.609 24.8994 17.695 24.9637 17.7945 24.9884C17.894 25.013 17.999 24.9959 18.0863 24.9409C18.1736 24.8859 18.2361 24.7975 18.26 24.6951C18.2839 24.5927 18.2673 24.4847 18.2139 24.3949L16.3809 21.3144C16.9364 21.2807 17.4584 21.0301 17.8405 20.6138C18.2226 20.1975 18.4358 19.6468 18.4367 19.0743V7.1933C18.6501 7.20537 18.8509 7.30087 18.998 7.46027C19.1452 7.61966 19.2276 7.83089 19.2284 8.05074V9.36517C19.2284 9.47045 19.269 9.57142 19.3414 9.64587C19.4137 9.72031 19.5119 9.76213 19.6142 9.76213C19.7165 9.76213 19.8147 9.72031 19.887 9.64587C19.9594 9.57142 20 9.47045 20 9.36517V8.05138C19.9991 7.62123 19.8355 7.20832 19.544 6.90001C19.2525 6.59169 18.8558 6.41216 18.438 6.39937ZM16.2543 20.5278H3.74691C3.37254 20.5274 3.01362 20.3742 2.7489 20.1018C2.48418 19.8294 2.33528 19.4601 2.33488 19.0749V5.09702H16.2003C16.3026 5.09702 16.4008 5.05519 16.4731 4.98075C16.5455 4.9063 16.5861 4.80533 16.5861 4.70005C16.5861 4.59477 16.5455 4.4938 16.4731 4.41936C16.4008 4.34491 16.3026 4.30309 16.2003 4.30309H2.39537C2.47869 3.99991 2.65568 3.73288 2.89957 3.54237C3.14347 3.35187 3.44101 3.24824 3.74722 3.24716H16.2543C16.6287 3.24759 16.9876 3.40079 17.2523 3.67317C17.5171 3.94555 17.6659 4.31485 17.6664 4.70005V15.1615H3.80093C3.6986 15.1615 3.60047 15.2033 3.52812 15.2777C3.45577 15.3522 3.41512 15.4532 3.41512 15.5584C3.41512 15.6637 3.45577 15.7647 3.52812 15.8391C3.60047 15.9136 3.6986 15.9554 3.80093 15.9554H17.6664V19.0749C17.6659 19.4601 17.5171 19.8294 17.2523 20.1018C16.9876 20.3742 16.6287 20.5274 16.2543 20.5278Z" fill="#006692" fill-opacity="0.85"/>
<path d="M6.96588 22.1083H6.83718C6.73486 22.1083 6.63673 22.1502 6.56438 22.2246C6.49202 22.2991 6.45138 22.4 6.45138 22.5053C6.45138 22.6106 6.49202 22.7116 6.56438 22.786C6.63673 22.8605 6.73486 22.9023 6.83718 22.9023H6.96588C7.0682 22.9023 7.16634 22.8605 7.23869 22.786C7.31104 22.7116 7.35169 22.6106 7.35169 22.5053C7.35169 22.4 7.31104 22.2991 7.23869 22.2246C7.16634 22.1502 7.0682 22.1083 6.96588 22.1083Z" fill="#006692" fill-opacity="0.85"/>
</svg>
