<svg width="30" height="30" viewBox="0 0 30 30" fill="none" xmlns="http://www.w3.org/2000/svg">
<path d="M25.476 20.084L25.1787 19.5983C24.5976 18.6493 23.8944 17.779 23.0886 17.0117L22.0946 16.0652C22.0001 15.9752 21.9859 15.8323 22.0609 15.7255L23.4182 13.7914C23.6139 13.5125 23.7945 13.2188 23.9551 12.9185L25.1149 10.7483C25.317 10.3702 25.3062 9.92467 25.0859 9.5567C24.8657 9.18879 24.4781 8.96877 24.0493 8.9683L21.5389 8.96543C21.5384 8.96543 21.5379 8.96543 21.5374 8.96543C21.0114 8.96543 20.5351 9.2765 20.3238 9.75814L20.0579 10.364C19.3795 11.9098 18.4534 13.3192 17.3047 14.5549V10.1319C17.3047 9.48838 16.7811 8.96484 16.1377 8.96484H12.5822C11.9983 8.96484 11.5234 9.43981 11.5234 10.0236C11.5234 10.2466 11.5922 10.4602 11.7221 10.6411L11.9709 10.9877C12.2149 11.3273 12.3438 11.7279 12.3438 12.1462V15.3782C11.9053 14.8689 11.3715 14.1774 10.9195 13.3823C10.2275 12.1648 9.73142 10.745 9.49733 10.007C9.29958 9.38367 8.72747 8.96484 8.07362 8.96484H5.53101C5.17218 8.96484 4.84218 9.12891 4.62538 9.41496C4.40876 9.70107 4.34026 10.0633 4.43759 10.4088L4.9119 12.0922C5.20259 13.1241 5.6022 14.1287 6.0996 15.078C6.24972 15.3646 6.60374 15.4753 6.8905 15.3251C7.1772 15.1749 7.28776 14.8208 7.13759 14.5341C6.67792 13.6567 6.3086 12.7282 6.03989 11.7745L5.57847 10.1367H8.07368C8.21448 10.1367 8.3377 10.227 8.3803 10.3613C8.62833 11.1431 9.15567 12.6506 9.90081 13.9614C10.5122 15.0369 11.2539 15.9329 11.7686 16.4952C12.0506 16.8032 12.4844 16.9046 12.8738 16.7532C13.2637 16.6018 13.5156 16.2336 13.5156 15.8154V12.1462C13.5156 11.4812 13.3106 10.8442 12.9229 10.3042L12.8026 10.1367H16.1328V14.8356C16.1328 15.1794 16.3054 15.4955 16.5946 15.6814C16.8837 15.8673 17.2429 15.893 17.5557 15.7502L17.7973 15.64C17.9086 15.5892 18.0074 15.5184 18.0913 15.4294C19.3629 14.079 20.3856 12.5332 21.131 10.8349L21.3969 10.229C21.4213 10.1732 21.4765 10.1372 21.5374 10.1372H21.5375L24.048 10.1401C24.0565 10.1401 24.0695 10.1402 24.0805 10.1586C24.0916 10.177 24.0854 10.1884 24.0814 10.196L22.9216 12.366C22.7833 12.6248 22.6276 12.8779 22.459 13.1183L21.1017 15.0523C20.6908 15.6378 20.7686 16.4207 21.2865 16.9138L22.2805 17.8604C23.0126 18.5575 23.6514 19.3481 24.1793 20.2102L24.4766 20.6959C24.4837 20.7076 24.5055 20.7431 24.4784 20.7915C24.4513 20.8398 24.4096 20.8398 24.396 20.8398H22.2286C21.9501 20.8398 21.6791 20.7253 21.485 20.5257L19.3178 18.2974C18.8071 17.7722 18.159 17.4116 17.4435 17.2546C17.1228 17.1841 16.7918 17.2617 16.5357 17.4677C16.2797 17.6736 16.1328 17.9801 16.1328 18.3087V20.4981C16.1328 20.6865 15.9796 20.8399 15.7911 20.8399C14.1117 20.8399 12.4521 20.2779 11.1181 19.2577C10.5807 18.8466 10.0681 18.3933 9.5946 17.9104C9.36808 17.6794 8.99712 17.6756 8.76597 17.9021C8.53487 18.1287 8.53124 18.4997 8.75776 18.7308C9.27005 19.2533 9.82464 19.7437 10.4061 20.1885C11.9433 21.3642 13.8557 22.0117 15.791 22.0117C16.6256 22.0117 17.3047 21.3327 17.3047 20.4981V18.4266C17.7509 18.5457 18.1544 18.782 18.4777 19.1145L20.6449 21.3428C21.0583 21.7679 21.6356 22.0117 22.2286 22.0117H24.396C24.8538 22.0117 25.2771 21.7637 25.5008 21.3643C25.7245 20.965 25.715 20.4744 25.476 20.084Z" fill="black"/>
<path d="M8.2064 16.2629L8.1999 16.2538C8.01128 15.9908 7.6453 15.9304 7.38228 16.119C7.11931 16.3076 7.05896 16.6737 7.24751 16.9366C7.24775 16.9371 7.25126 16.9419 7.2515 16.9423L7.73021 16.6043L7.25402 16.9457C7.36845 17.1053 7.54827 17.1903 7.73074 17.1903C7.84886 17.1903 7.96822 17.1546 8.07163 17.0805C8.3346 16.8919 8.39495 16.5258 8.2064 16.2629Z" fill="black"/>
<path d="M12.0038 26.0156H7.22836C6.90481 26.0156 6.64243 26.2779 6.64243 26.6016C6.64243 26.9252 6.90481 27.1875 7.22836 27.1875H12.0038C12.3274 27.1875 12.5897 26.9252 12.5897 26.6016C12.5897 26.2779 12.3273 26.0156 12.0038 26.0156Z" fill="black"/>
<path d="M14.6698 26.0156H14.6628C14.3392 26.0156 14.0768 26.2779 14.0768 26.6016C14.0768 26.9252 14.3392 27.1875 14.6628 27.1875H14.6698C14.9934 27.1875 15.2557 26.9252 15.2557 26.6016C15.2557 26.2779 14.9933 26.0156 14.6698 26.0156Z" fill="black"/>
<path d="M26.1328 0H3.86719C1.73479 0 0 1.73479 0 3.86719V26.1328C0 28.2652 1.73479 30 3.86719 30H26.1328C28.2652 30 30 28.2652 30 26.1328V3.86719C30 1.73479 28.2652 0 26.1328 0ZM28.8281 26.1328C28.8281 27.619 27.619 28.8281 26.1328 28.8281H3.86719C2.38102 28.8281 1.17188 27.619 1.17188 26.1328V3.86719C1.17188 2.38102 2.38102 1.17188 3.86719 1.17188H26.1328C27.619 1.17188 28.8281 2.38102 28.8281 3.86719V26.1328Z" fill="black"/>
</svg>
