<svg width="30" height="30" viewBox="0 0 30 30" fill="none" xmlns="http://www.w3.org/2000/svg">
<path d="M15 21.9922C14.6764 21.9922 14.4141 22.2545 14.4141 22.5781C14.4141 22.5789 14.4141 22.5797 14.4141 22.5804C14.4141 22.5812 14.4141 22.582 14.4141 22.5828V22.5875C14.4141 22.9111 14.6764 23.1734 15 23.1734C15.3236 23.1734 15.5859 22.9111 15.5859 22.5875C15.5859 22.5866 15.5859 22.5859 15.5859 22.5851C15.5859 22.5843 15.5859 22.5836 15.5859 22.5828C15.5859 22.582 15.5859 22.5812 15.5859 22.5804C15.5859 22.5797 15.5859 22.5789 15.5859 22.5781C15.5859 22.2545 15.3236 21.9922 15 21.9922Z" fill="black"/>
<path d="M24.2578 0H5.74219C2.5759 0 0 2.5759 0 5.74219V24.2578C0 27.4241 2.5759 30 5.74219 30H15C15.3236 30 15.5859 29.7377 15.5859 29.4141V24.873C15.5859 24.5494 15.3236 24.2871 15 24.2871C14.6764 24.2871 14.4141 24.5494 14.4141 24.873V28.8281H5.74219C3.22213 28.8281 1.17188 26.7779 1.17188 24.2578V5.74219C1.17188 3.22213 3.22213 1.17188 5.74219 1.17188H24.2578C26.7779 1.17188 28.8281 3.22213 28.8281 5.74219V24.2578C28.8281 26.7779 26.7779 28.8281 24.2578 28.8281H20.5078V18.4864H23.9051C24.2061 18.4864 24.458 18.2585 24.4881 17.9591L24.9095 13.7723C24.9261 13.6075 24.8722 13.4434 24.7611 13.3206C24.65 13.1978 24.4921 13.1277 24.3265 13.1277H20.5078V10.9292C20.5078 10.5313 20.6346 10.3833 20.9754 10.3833H24.3002C24.6238 10.3833 24.8861 10.121 24.8861 9.7974V5.71576C24.8861 5.39215 24.6238 5.12982 24.3002 5.12982H19.9339C17.4599 5.12982 16.1479 6.2165 15.4829 7.12811C14.5529 8.40299 14.414 9.90861 14.414 10.6926V13.1539H11.5429C11.2193 13.1539 10.957 13.4163 10.957 13.7399V17.9004C10.957 18.224 11.2193 18.4863 11.5429 18.4863H14.414V20.1562C14.414 20.4799 14.6763 20.7422 14.9999 20.7422C15.3236 20.7422 15.5859 20.4799 15.5859 20.1562V17.9004C15.5859 17.5768 15.3236 17.3145 14.9999 17.3145H12.1288V14.3258H14.9999C15.3236 14.3258 15.5859 14.0634 15.5859 13.7398V10.6925C15.5859 9.3723 16.0096 6.30164 19.9339 6.30164H23.7142V9.21141H20.9754C20.2191 9.21141 19.3359 9.66129 19.3359 10.9291V13.7136C19.3359 14.0372 19.5983 14.2995 19.9219 14.2995H23.6786L23.3752 17.3145H19.9219C19.5983 17.3145 19.3359 17.5768 19.3359 17.9004V29.4141C19.3359 29.7377 19.5983 30 19.9219 30H24.2578C27.4241 30 30 27.4241 30 24.2578V5.74219C30 2.5759 27.4241 0 24.2578 0Z" fill="black"/>
<path d="M3.39844 6.00586C3.07482 6.00586 2.8125 6.26818 2.8125 6.5918V11.4844C2.8125 11.808 3.07482 12.0703 3.39844 12.0703C3.72205 12.0703 3.98438 11.808 3.98438 11.4844V6.5918C3.98438 6.26818 3.72205 6.00586 3.39844 6.00586Z" fill="black"/>
<path d="M3.39844 13.4403C3.07482 13.4403 2.8125 13.7027 2.8125 14.0263V14.0332C2.8125 14.3568 3.07482 14.6191 3.39844 14.6191C3.72205 14.6191 3.98438 14.3568 3.98438 14.0332V14.0263C3.98438 13.7027 3.72205 13.4403 3.39844 13.4403Z" fill="black"/>
<path d="M3.39844 6.00586C3.07482 6.00586 2.8125 6.26818 2.8125 6.5918V11.4844C2.8125 11.808 3.07482 12.0703 3.39844 12.0703C3.72205 12.0703 3.98438 11.808 3.98438 11.4844V6.5918C3.98438 6.26818 3.72205 6.00586 3.39844 6.00586Z" fill="black"/>
<path d="M3.39844 13.4403C3.07482 13.4403 2.8125 13.7027 2.8125 14.0263V14.0332C2.8125 14.3568 3.07482 14.6191 3.39844 14.6191C3.72205 14.6191 3.98438 14.3568 3.98438 14.0332V14.0263C3.98438 13.7027 3.72205 13.4403 3.39844 13.4403Z" fill="black"/>
</svg>
