<svg width="50" height="50" viewBox="0 0 50 50" fill="none" xmlns="http://www.w3.org/2000/svg">
<path d="M22.8061 11.3857C22.3674 11.0721 21.7574 11.1736 21.4438 11.6123C21.1303 12.0513 21.2317 12.6609 21.6708 12.9745C23.3077 14.1441 24.2846 16.0415 24.2846 18.0503C24.2846 21.487 21.4889 24.2832 18.0518 24.2832C14.6148 24.2832 11.8186 21.487 11.8186 18.0503C11.8186 16.0415 12.7959 14.1441 14.4332 12.9745C14.8719 12.6609 14.9734 12.0509 14.6598 11.6123C14.3466 11.1732 13.7366 11.0717 13.2976 11.3853C11.1487 12.9207 9.86548 15.4121 9.86548 18.0503C9.86548 22.5639 13.5379 26.2363 18.0518 26.2363C22.5657 26.2363 26.2378 22.5639 26.2378 18.0503C26.2378 15.4121 24.9549 12.9207 22.8061 11.3857Z" fill="black" fill-opacity="0.9"/>
<path d="M38.7407 33.7513C36.062 33.7513 33.8831 35.9307 33.8831 38.6094C33.8831 41.2877 36.062 43.467 38.7407 43.467C41.4194 43.467 43.5983 41.2877 43.5983 38.6094C43.5983 35.9307 41.4194 33.7513 38.7407 33.7513ZM38.7407 41.5139C37.1389 41.5139 35.8362 40.2108 35.8362 38.6094C35.8362 37.0076 37.1389 35.7045 38.7407 35.7045C40.3421 35.7045 41.6452 37.0076 41.6452 38.6094C41.6452 40.2108 40.3421 41.5139 38.7407 41.5139Z" fill="black" fill-opacity="0.9"/>
<path d="M49.8688 35.104L47.3404 30.7247C47.0707 30.2578 46.4733 30.0976 46.0064 30.3673L44.8395 31.0409C44.0575 30.4115 43.1785 29.9034 42.2459 29.5418V28.1963C42.2459 27.6569 41.8087 27.2198 41.2693 27.2198H36.2125C35.6731 27.2198 35.236 27.6569 35.236 28.1963V29.5418C34.3033 29.9034 33.424 30.4115 32.6424 31.0409L31.4754 30.3673C31.427 30.3394 31.3774 30.3173 31.3267 30.2982L33.0116 28.6117C33.3931 28.2303 33.3927 27.6123 33.0116 27.2308L31.646 25.8652C32.3257 24.6872 32.8453 23.4333 33.1974 22.121H35.1269C35.6663 22.121 36.1034 21.6839 36.1034 21.1445V14.9376C36.1034 14.3982 35.6663 13.961 35.1269 13.961H33.1974C32.8453 12.6488 32.3257 11.3949 31.6456 10.2169L33.0044 8.85849C33.1875 8.67538 33.2901 8.42666 33.2901 8.16765C33.2901 7.90863 33.1871 7.66029 33.004 7.47719L28.6137 3.0899C28.2322 2.70882 27.6138 2.70882 27.2327 3.09029L25.8758 4.44717C24.6979 3.76739 23.444 3.24783 22.1317 2.89574V0.976562C22.1317 0.437164 21.6946 0 21.1552 0H14.9483C14.4093 0 13.9717 0.437164 13.9717 0.976562V2.89574C12.6598 3.24783 11.4059 3.76739 10.228 4.44717L8.87108 3.09029C8.48961 2.7092 7.87124 2.70882 7.49016 3.09029L3.09944 7.47719C2.91634 7.66029 2.81334 7.90863 2.81334 8.16803C2.81334 8.42705 2.91595 8.67538 3.09944 8.85849L4.45785 10.2169C3.77808 11.3953 3.25813 12.6492 2.90642 13.9614H0.979995C0.440979 13.9614 0.0038147 14.3982 0.00343322 14.9372L0 21.1441C0 21.4031 0.102615 21.6518 0.285721 21.8349C0.469208 22.018 0.717544 22.121 0.976562 22.121H2.90604C3.25813 23.4333 3.77769 24.6876 4.45785 25.8655L3.09219 27.2312C2.71072 27.6123 2.71072 28.2303 3.09181 28.6117L7.47909 33.0025C7.6622 33.1856 7.91054 33.2886 8.16955 33.2886H8.16994C8.42895 33.2886 8.67729 33.1856 8.8604 33.0025L10.2276 31.6353C11.4059 32.3151 12.6598 32.835 13.9721 33.1871V35.1238C13.9721 35.6632 14.4093 36.1004 14.9487 36.1004H21.1552C21.6946 36.1004 22.1317 35.6632 22.1317 35.1238V33.1871C23.444 32.835 24.6979 32.3151 25.8762 31.6353L27.2434 33.0025C27.4265 33.1856 27.6749 33.2886 27.9343 33.2886C28.1933 33.2886 28.4416 33.1856 28.6247 33.0025L29.1027 32.5241L27.6131 35.104C27.3434 35.5713 27.5032 36.1683 27.9705 36.438L29.1359 37.1109C29.0592 37.6053 29.0207 38.1069 29.0207 38.6093C29.0207 39.1113 29.0592 39.613 29.1359 40.1073L27.9705 40.7803C27.7462 40.9096 27.5825 41.1232 27.5154 41.3731C27.4483 41.6233 27.4834 41.8899 27.6131 42.1142L30.1414 46.4935C30.2711 46.7178 30.4844 46.8815 30.7346 46.9486C30.9845 47.0158 31.2511 46.9807 31.4754 46.851L32.6424 46.1773C33.424 46.8067 34.3033 47.3148 35.236 47.6768V49.0223C35.236 49.5617 35.6731 49.9988 36.2125 49.9988H41.2693C41.8087 49.9988 42.2459 49.5617 42.2459 49.0223V47.6768C43.1785 47.3148 44.0578 46.8067 44.8395 46.1773L46.0064 46.851C46.4737 47.121 47.0707 46.9608 47.3404 46.4935L49.8688 42.1142C49.9985 41.8899 50.0336 41.6233 49.9664 41.3731C49.8993 41.1232 49.7356 40.9096 49.5113 40.7803L48.3459 40.1073C48.4226 39.613 48.4611 39.1113 48.4611 38.6093C48.4611 38.1069 48.4226 37.6053 48.3459 37.1109L49.5113 36.438C49.9782 36.1683 50.1385 35.5713 49.8688 35.104ZM27.9335 30.9307L26.7136 29.7108C26.3882 29.3854 25.8797 29.3312 25.4932 29.5811C24.0986 30.4821 22.57 31.1153 20.9499 31.4636C20.5002 31.5601 20.1786 31.958 20.1786 32.4184V34.1469H15.9252V32.4184C15.9252 31.958 15.6036 31.5601 15.1539 31.4636C13.5334 31.1153 12.0052 30.4821 10.6106 29.5811C10.2241 29.3312 9.71565 29.3854 9.39026 29.7108L8.16994 30.9307L5.16319 27.9217L6.38237 26.7029C6.70776 26.3775 6.76193 25.869 6.51207 25.4822C5.61104 24.0879 4.9778 22.5594 4.62952 20.9392C4.533 20.4895 4.13513 20.1679 3.6747 20.1679H1.95351L1.95579 15.9142H3.6747C4.13513 15.9142 4.533 15.593 4.62952 15.1428C4.9778 13.5227 5.61104 11.9942 6.51207 10.6003C6.76193 10.2135 6.70776 9.70497 6.38237 9.37958L5.1712 8.16841L8.18023 5.16167L9.39026 6.37169C9.71565 6.69746 10.2241 6.75163 10.611 6.50139C12.0052 5.60036 13.5334 4.96712 15.1535 4.61922C15.6036 4.52232 15.9248 4.12483 15.9248 3.6644V1.95312H20.1786V3.6644C20.1786 4.12445 20.5002 4.52232 20.9499 4.61922C22.57 4.96712 24.0986 5.60036 25.4929 6.50139C25.8793 6.75125 26.3878 6.69708 26.7136 6.37169L27.9236 5.16167L30.9326 8.16841L29.7214 9.37958C29.3957 9.70497 29.3419 10.2135 29.5917 10.6003C30.4928 11.9942 31.126 13.5227 31.4743 15.1428C31.5708 15.593 31.9687 15.9142 32.4291 15.9142H34.1507V20.1679H32.4291C31.9687 20.1679 31.5708 20.4895 31.4743 20.9392C31.1264 22.5594 30.4928 24.0879 29.5917 25.4822C29.3423 25.8686 29.396 26.3775 29.7214 26.7029L30.9406 27.9217L27.9335 30.9307ZM46.3043 36.8351C46.4394 37.4134 46.508 38.0104 46.508 38.6093C46.508 39.2078 46.4394 39.8048 46.3043 40.3831C46.2067 40.8024 46.3943 41.2361 46.767 41.4513L47.689 41.9834L46.1372 44.6712L45.2129 44.1379C44.8402 43.9224 44.3703 43.977 44.0563 44.2718C43.1854 45.0897 42.1242 45.7031 40.9874 46.0461C40.575 46.1704 40.2927 46.5504 40.2927 46.981V48.0457H37.1887V46.981C37.1887 46.5504 36.9068 46.1704 36.4944 46.0461C35.3573 45.7031 34.296 45.0897 33.4251 44.2718C33.1112 43.977 32.6412 43.9228 32.2685 44.1379L31.3446 44.6712L29.7924 41.9834L30.7144 41.4513C31.0871 41.2361 31.2752 40.8024 31.1771 40.3831C31.0421 39.8048 30.9734 39.2078 30.9734 38.6093C30.9734 38.0104 31.0421 37.4134 31.1771 36.8351C31.2748 36.4159 31.0871 35.9825 30.7144 35.7674L29.7924 35.2348L31.3442 32.547L32.2685 33.0807C32.6412 33.2958 33.1112 33.2416 33.4251 32.9468C34.296 32.1289 35.3573 31.5155 36.4941 31.1726C36.9064 31.0482 37.1887 30.6683 37.1887 30.2376V29.1729H40.2924V30.2376C40.2924 30.6683 40.5746 31.0482 40.987 31.1726C42.1238 31.5155 43.185 32.1289 44.0559 32.9468C44.3699 33.2413 44.8398 33.2958 45.2129 33.0807L46.1368 32.547L47.6887 35.2348L46.7667 35.7674C46.3943 35.9825 46.2067 36.4162 46.3043 36.8351Z" fill="black" fill-opacity="0.9"/>
<path d="M40.8203 8.20312C41.3597 8.20312 41.7969 7.76596 41.7969 7.22656V0.976562C41.7969 0.437164 41.3597 0 40.8203 0C40.2809 0 39.8438 0.437164 39.8438 0.976562V7.22656C39.8438 7.76596 40.2809 8.20312 40.8203 8.20312Z" fill="black" fill-opacity="0.9"/>
<path d="M36.9141 8.20312C37.4535 8.20312 37.8906 7.76596 37.8906 7.22656V0.976562C37.8906 0.437164 37.4535 0 36.9141 0C36.3747 0 35.9375 0.437164 35.9375 0.976562V7.22656C35.9375 7.76596 36.3747 8.20312 36.9141 8.20312Z" fill="black" fill-opacity="0.9"/>
<path d="M46.875 0C45.1519 0 43.75 1.4019 43.75 3.125V5.07812C43.75 6.80122 45.1519 8.20312 46.875 8.20312C48.5981 8.20312 50 6.80122 50 5.07812V3.125C50 1.4019 48.5981 0 46.875 0ZM48.0469 5.07812C48.0469 5.72433 47.5212 6.25 46.875 6.25C46.2288 6.25 45.7031 5.72433 45.7031 5.07812V3.125C45.7031 2.47879 46.2288 1.95312 46.875 1.95312C47.5212 1.95312 48.0469 2.47879 48.0469 3.125V5.07812Z" fill="black" fill-opacity="0.9"/>
<path d="M49.0234 10.1562C48.484 10.1562 48.0469 10.5934 48.0469 11.1328V17.3828C48.0469 17.9222 48.484 18.3594 49.0234 18.3594C49.5628 18.3594 50 17.9222 50 17.3828V11.1328C50 10.5934 49.5628 10.1562 49.0234 10.1562Z" fill="black" fill-opacity="0.9"/>
<path d="M42.9688 18.3594C44.6918 18.3594 46.0938 16.9575 46.0938 15.2344V13.2812C46.0938 11.5582 44.6918 10.1562 42.9688 10.1562C41.2457 10.1562 39.8438 11.5582 39.8438 13.2812V15.2344C39.8438 16.9575 41.2457 18.3594 42.9688 18.3594ZM41.7969 13.2812C41.7969 12.635 42.3225 12.1094 42.9688 12.1094C43.615 12.1094 44.1406 12.635 44.1406 13.2812V15.2344C44.1406 15.8806 43.615 16.4062 42.9688 16.4062C42.3225 16.4062 41.7969 15.8806 41.7969 15.2344V13.2812Z" fill="black" fill-opacity="0.9"/>
<path d="M4.19922 41.7969C3.65982 41.7969 3.22266 42.234 3.22266 42.7734V49.0234C3.22266 49.5628 3.65982 50 4.19922 50C4.73862 50 5.17578 49.5628 5.17578 49.0234V42.7734C5.17578 42.234 4.73862 41.7969 4.19922 41.7969Z" fill="black" fill-opacity="0.9"/>
<path d="M10.2539 41.7969C8.53081 41.7969 7.12891 43.1988 7.12891 44.9219V46.875C7.12891 48.5981 8.53081 50 10.2539 50C11.977 50 13.3789 48.5981 13.3789 46.875V44.9219C13.3789 43.1988 11.977 41.7969 10.2539 41.7969ZM11.4258 46.875C11.4258 47.5212 10.9001 48.0469 10.2539 48.0469C9.6077 48.0469 9.08203 47.5212 9.08203 46.875V44.9219C9.08203 44.2757 9.6077 43.75 10.2539 43.75C10.9001 43.75 11.4258 44.2757 11.4258 44.9219V46.875Z" fill="black" fill-opacity="0.9"/>
<path d="M16.3086 41.7969C15.7692 41.7969 15.332 42.234 15.332 42.7734V49.0234C15.332 49.5628 15.7692 50 16.3086 50C16.848 50 17.2852 49.5628 17.2852 49.0234V42.7734C17.2852 42.234 16.848 41.7969 16.3086 41.7969Z" fill="black" fill-opacity="0.9"/>
<path d="M22.3633 41.7969C20.6402 41.7969 19.2383 43.1988 19.2383 44.9219V46.875C19.2383 48.5981 20.6402 50 22.3633 50C24.0864 50 25.4883 48.5981 25.4883 46.875V44.9219C25.4883 43.1988 24.0864 41.7969 22.3633 41.7969ZM23.5352 46.875C23.5352 47.5212 23.0095 48.0469 22.3633 48.0469C21.7171 48.0469 21.1914 47.5212 21.1914 46.875V44.9219C21.1914 44.2757 21.7171 43.75 22.3633 43.75C23.0095 43.75 23.5352 44.2757 23.5352 44.9219V46.875Z" fill="black" fill-opacity="0.9"/>
<path d="M18.0518 11.8175C17.7946 11.8175 17.5429 11.713 17.3613 11.531C17.1797 11.3494 17.0752 11.0977 17.0752 10.8409C17.0752 10.5838 17.1797 10.3321 17.3613 10.1505C17.5429 9.96852 17.7946 9.86438 18.0518 9.86438C18.3085 9.86438 18.5603 9.96852 18.7422 10.1505C18.9238 10.3321 19.0283 10.5838 19.0283 10.8409C19.0283 11.0977 18.9238 11.3494 18.7422 11.531C18.5603 11.713 18.3085 11.8175 18.0518 11.8175Z" fill="black" fill-opacity="0.9"/>
</svg>
