<svg width="93" height="70" viewBox="0 0 93 70" fill="none" xmlns="http://www.w3.org/2000/svg">
<path d="M46.2817 4.375C47.4874 4.375 48.4648 3.39562 48.4648 2.1875C48.4648 0.979377 47.4874 0 46.2817 0C45.076 0 44.0986 0.979377 44.0986 2.1875C44.0986 3.39562 45.076 4.375 46.2817 4.375Z" fill="white"/>
<path d="M41.4789 11.375C42.4435 11.375 43.2254 10.5915 43.2254 9.625C43.2254 8.6585 42.4435 7.875 41.4789 7.875C40.5143 7.875 39.7324 8.6585 39.7324 9.625C39.7324 10.5915 40.5143 11.375 41.4789 11.375Z" fill="white"/>
<path d="M27.1169 54.6875H4.32666V59.5C4.67068 62.475 6.76336 65.1144 7.76671 66.0625H21.5268L22.8169 63C22.3008 61.425 23.4618 60.8856 24.1069 60.8125L27.1169 54.6875Z" fill="white"/>
<path d="M30.1269 48.0213C28.9183 46.3536 25.4777 42.7138 21.383 41.4958V33.2302C21.8806 33.1577 22.8759 32.6647 22.8759 31.2726C22.8759 30.7651 22.5773 29.75 21.383 29.75H13.0657C12.497 29.75 11.3596 30.098 11.3596 31.4901C11.3596 32.0702 11.7008 33.2302 13.0657 33.2302V41.4958C9.22693 42.8008 1.59205 47.6731 1.76266 56.7219C1.62049 59.1867 2.35981 64.9438 6.45448 68.25H21.5963" stroke="white" stroke-width="3" stroke-linecap="round"/>
<path d="M10.7764 63C11.7264 63 12.4964 62.2165 12.4964 61.25C12.4964 60.2835 11.7264 59.5 10.7764 59.5C9.82647 59.5 9.0564 60.2835 9.0564 61.25C9.0564 62.2165 9.82647 63 10.7764 63Z" fill="#242424"/>
<path d="M17.6567 61.6875C19.0816 61.6875 20.2367 60.5122 20.2367 59.0625C20.2367 57.6128 19.0816 56.4375 17.6567 56.4375C16.2318 56.4375 15.0767 57.6128 15.0767 59.0625C15.0767 60.5122 16.2318 61.6875 17.6567 61.6875Z" fill="#242424"/>
<path d="M65.8833 54.6875H88.6736V59.5C88.3295 62.475 86.2368 65.1144 85.2334 66.0625H71.4733L70.1831 63C70.6992 61.425 69.5382 60.8856 68.8934 60.8125L65.8833 54.6875Z" fill="white"/>
<path d="M62.8733 48.0213C64.0819 46.3536 67.5224 42.7138 71.617 41.4958V33.2302C71.1197 33.1577 70.1242 32.6647 70.1242 31.2726C70.1242 30.7651 70.4229 29.75 71.617 29.75H79.9346C80.5031 29.75 81.6405 30.098 81.6405 31.4901C81.6405 32.0702 81.2995 33.2302 79.9346 33.2302V41.4958C83.7734 42.8008 91.4081 47.6731 91.2374 56.7219C91.3798 59.1867 90.6406 64.9438 86.5455 68.25H71.404" stroke="white" stroke-width="3" stroke-linecap="round"/>
<path d="M82.2233 63C81.2734 63 80.5033 62.2165 80.5033 61.25C80.5033 60.2835 81.2734 59.5 82.2233 59.5C83.1733 59.5 83.9434 60.2835 83.9434 61.25C83.9434 62.2165 83.1733 63 82.2233 63Z" fill="#242424"/>
<path d="M75.3436 61.6875C73.9187 61.6875 72.7635 60.5122 72.7635 59.0625C72.7635 57.6128 73.9187 56.4375 75.3436 56.4375C76.7685 56.4375 77.9236 57.6128 77.9236 59.0625C77.9236 60.5122 76.7685 61.6875 75.3436 61.6875Z" fill="#242424"/>
<path d="M37.5493 53.0521L31.8733 63.875H61.1268L56.7606 56.0823C56.4113 55.3897 56.0328 55.3608 55.8874 55.433C52.0451 56.2988 47.8828 55.9383 46.2817 55.6496L39.0775 52.619C38.2043 52.2729 37.6949 52.7634 37.5493 53.0521Z" fill="white"/>
<path d="M27.5981 68.25H46.7763H65.5187C67.7852 68.25 67.335 66.5 66.8263 65.625L52.2249 37.625V24.7188C52.2249 24.1937 52.951 23.4792 53.3143 23.1875C54.1862 22.1375 54.2587 21 54.1862 20.5625C54.1862 19.1625 53.0239 18.8125 52.4428 18.8125H40.2383C38.6692 18.8125 38.7127 20.8542 38.9307 21.875C38.9307 22.225 39.6571 23.0417 40.0203 23.4062C40.3691 23.7563 40.6015 24.2812 40.6742 24.5V38.0625L26.2904 65.1875C24.8957 67.4625 26.581 68.1769 27.5981 68.25Z" stroke="white" stroke-width="3"/>
<path d="M50.2114 14.875C51.8993 14.875 53.2677 13.5039 53.2677 11.8125C53.2677 10.1211 51.8993 8.75 50.2114 8.75C48.5234 8.75 47.155 10.1211 47.155 11.8125C47.155 13.5039 48.5234 14.875 50.2114 14.875Z" fill="white"/>
</svg>
