<svg width="45" height="46" viewBox="0 0 45 46" fill="none" xmlns="http://www.w3.org/2000/svg">
<g clip-path="url(#clip0)">
<path d="M27.2587 33.8082C25.2839 34.697 23.5721 34.993 21.235 34.993C15.7712 34.993 10.9653 31.0759 10.9653 24.6248C10.9653 17.91 15.8367 12.0839 23.2761 12.0839C29.0692 12.0839 33.2165 16.0669 33.2165 21.5965C33.2165 26.4021 30.5175 29.4304 26.9627 29.4304C25.4156 29.4304 24.2966 28.6404 24.132 26.8957H24.0661C23.0459 28.5745 21.5647 29.4304 19.8201 29.4304C17.6806 29.4304 16.1335 27.8504 16.1335 25.151C16.1335 21.1355 19.0959 17.4818 23.8356 17.4818C25.2839 17.4818 26.9294 17.8441 27.7527 18.3048L26.7654 24.3943C26.4365 26.3359 26.6667 27.225 27.5884 27.2576C29.0037 27.2905 30.781 25.48 30.781 21.695C30.781 17.416 28.0161 14.0913 22.9139 14.0913C17.8782 14.0913 13.4671 18.0413 13.4671 24.3281C13.4671 29.8248 16.989 32.9519 21.8937 32.9519C23.5725 32.9519 25.3501 32.59 26.6663 31.8985L27.2587 33.8082ZM24.3292 20.2141C24.0658 20.1483 23.7364 20.0824 23.3087 20.0824C21.1366 20.0824 19.4245 22.2219 19.4245 24.7562C19.4245 26.0069 19.9844 26.7969 21.0704 26.7969C22.2882 26.7969 23.5721 25.2498 23.8682 23.3408L24.3292 20.2141Z" fill="#242424" fill-opacity="0.4"/>
</g>
<circle cx="22.5" cy="23.4782" r="21.75" stroke="#242424" stroke-opacity="0.4" stroke-width="1.5"/>
<defs>
<clipPath id="clip0">
<rect width="22.9091" height="22.9091" fill="white" transform="translate(10.6362 12.0839)"/>
</clipPath>
</defs>
</svg>
