<svg width="20" height="20" viewBox="0 0 20 20" fill="none" xmlns="http://www.w3.org/2000/svg">
<g clip-path="url(#clip0)">
<path d="M19.2138 6.10748C18.7102 4.91634 17.9894 3.84709 17.0708 2.92896C16.1527 2.0106 15.0832 1.28936 13.8925 0.785758C12.6596 0.264524 11.35 0 9.99989 0C8.64981 0 7.34014 0.264524 6.10748 0.785981C4.91679 1.28958 3.84731 2.0106 2.92918 2.92918C2.01083 3.84731 1.2898 4.91657 0.786205 6.10748C0.264747 7.34014 0 8.64959 0 9.99989C0 11.3502 0.264524 12.6596 0.785981 13.8925C1.28958 15.0837 2.0106 16.1527 2.92896 17.0708C3.84731 17.9892 4.91657 18.7106 6.10726 19.2142C7.34014 19.7357 8.64981 20.0002 9.99989 20.0002C11.35 20.0002 12.6596 19.7357 13.8925 19.2142C15.0832 18.7106 16.1527 17.9896 17.0708 17.0708C17.9892 16.1527 18.7102 15.0837 19.2138 13.8925C19.7353 12.6601 19.9998 11.3502 19.9998 9.99989C19.9998 8.64959 19.7353 7.34014 19.2138 6.10748ZM19.5419 9.99989C19.5419 15.2613 15.2613 19.5419 9.99989 19.5419C4.73843 19.5419 0.457838 15.2613 0.457838 9.99989C0.457838 4.73843 4.73843 0.457838 9.99989 0.457838C15.2616 0.457838 19.5419 4.73843 19.5419 9.99989Z" fill="#FF2B2B" fill-opacity="0.85"/>
<path d="M12.1243 6.5412L10.0003 8.82793L7.77559 6.5412H1.50537L1.5364 13.4887H7.5604L10.0163 15.9172L12.3808 13.4887H18.494V6.5412H12.1243ZM9.99915 15.1618L7.88832 13.0628H1.93173V6.96712H7.56865L10.0067 9.39538L12.2888 6.96712H18.0686V13.0628H12.0598L9.99915 15.1618Z" fill="#FF2B2B" fill-opacity="0.85"/>
<path d="M7.42544 7.31314H2.27783V12.7166H7.50781L7.51384 12.0366L9.99902 14.5144L12.4405 12.0594V12.7166H17.7218V7.31314H12.4382L10.0146 9.89208L7.42544 7.31314Z" fill="#FF2B2B" fill-opacity="0.85"/>
</g>
<defs>
<clipPath id="clip0">
<rect width="19.9998" height="20" fill="white"/>
</clipPath>
</defs>
</svg>
