<svg width="45" height="45" viewBox="0 0 45 45" fill="none" xmlns="http://www.w3.org/2000/svg">
<path d="M29.5698 25.0657C29.1001 24.6277 28.5336 24.3935 27.9331 24.3935C27.3376 24.3935 26.7662 24.6234 26.2771 25.0614L24.747 26.4276C24.6211 26.3669 24.4952 26.3105 24.3741 26.2541C24.1998 26.1761 24.0352 26.1023 23.8948 26.0243C22.4615 25.2089 21.1589 24.1463 19.9096 22.7714C19.3043 22.0861 18.8976 21.5093 18.6022 20.9238C18.9993 20.5985 19.3673 20.2602 19.7256 19.9349C19.8612 19.8135 19.9968 19.6877 20.1324 19.5662C21.1492 18.6554 21.1492 17.4757 20.1324 16.5649L18.8104 15.3809C18.6603 15.2464 18.5054 15.1077 18.3601 14.9689C18.0696 14.7 17.7645 14.4224 17.4498 14.1622C16.9801 13.7458 16.4184 13.5246 15.8277 13.5246C15.2369 13.5246 14.6655 13.7458 14.1813 14.1622C14.1765 14.1665 14.1765 14.1665 14.1716 14.1708L12.5253 15.6585C11.9055 16.2136 11.552 16.8902 11.4745 17.6752C11.3583 18.9417 11.7747 20.1214 12.0943 20.8934C12.8788 22.7887 14.0506 24.5453 15.7986 26.4276C17.9195 28.6959 20.4713 30.4872 23.3863 31.7493C24.5 32.222 25.9866 32.7815 27.6475 32.8769C27.7491 32.8813 27.8557 32.8856 27.9525 32.8856C29.0711 32.8856 30.0105 32.5256 30.7465 31.81C30.7513 31.8013 30.761 31.797 30.7658 31.7883C31.0176 31.5151 31.3082 31.2679 31.6132 31.0033C31.8214 30.8255 32.0345 30.639 32.2427 30.4438C32.7221 29.9971 32.9739 29.4766 32.9739 28.9432C32.9739 28.4053 32.7172 27.8892 32.2282 27.4555L29.5698 25.0657ZM31.3033 29.6328C31.2985 29.6328 31.2985 29.6371 31.3033 29.6328C31.1145 29.8149 30.9208 29.9797 30.7126 30.1619C30.3978 30.4308 30.0782 30.7127 29.778 31.0293C29.289 31.4977 28.7127 31.7189 27.9574 31.7189C27.8847 31.7189 27.8073 31.7189 27.7346 31.7146C26.2965 31.6322 24.96 31.1291 23.9577 30.6997C21.217 29.5113 18.8104 27.8242 16.8106 25.686C15.1594 23.9034 14.0554 22.2553 13.3242 20.4857C12.8739 19.4058 12.7093 18.5644 12.7819 17.7707C12.8303 17.2632 13.0482 16.8425 13.4501 16.4825L15.1013 15.0036C15.3386 14.8041 15.5904 14.6956 15.8373 14.6956C16.1424 14.6956 16.3893 14.8604 16.5443 14.9992C16.5491 15.0036 16.554 15.0079 16.5588 15.0122C16.8542 15.2595 17.135 15.5153 17.4304 15.7886C17.5805 15.9274 17.7355 16.0662 17.8904 16.2093L19.2123 17.3933C19.7256 17.8531 19.7256 18.2781 19.2123 18.7378C19.0719 18.8636 18.9363 18.9894 18.7959 19.1108C18.3892 19.4838 18.0018 19.8308 17.5805 20.1691C17.5708 20.1778 17.5612 20.1821 17.5563 20.1908C17.1399 20.5638 17.2174 20.9281 17.3045 21.1753C17.3094 21.1883 17.3142 21.2013 17.319 21.2144C17.6628 21.9603 18.1471 22.663 18.8831 23.5L18.8879 23.5044C20.2244 24.979 21.6334 26.1283 23.1878 27.0088C23.3863 27.1216 23.5897 27.2126 23.7834 27.2994C23.9577 27.3774 24.1223 27.4512 24.2628 27.5292C24.2821 27.5379 24.3015 27.5509 24.3209 27.5596C24.4855 27.6333 24.6405 27.668 24.8002 27.668C25.2021 27.668 25.4539 27.4425 25.5363 27.3688L27.1923 25.8855C27.3569 25.738 27.6184 25.5602 27.9235 25.5602C28.2237 25.5602 28.4706 25.7293 28.6207 25.8768C28.6256 25.8811 28.6256 25.8811 28.6304 25.8855L31.2985 28.2752C31.7972 28.7176 31.7972 29.173 31.3033 29.6328Z" fill="#242424" fill-opacity="0.4"/>
<path d="M23.8369 17.2282C25.1056 17.419 26.258 17.9568 27.178 18.7809C28.098 19.6049 28.6936 20.6372 28.9115 21.7735C28.9648 22.0597 29.2408 22.2592 29.5555 22.2592C29.5943 22.2592 29.6282 22.2549 29.6669 22.2505C30.0252 22.1985 30.2625 21.8949 30.2044 21.574C29.9429 20.1991 29.2166 18.9457 28.1077 17.9525C26.9989 16.9593 25.5995 16.3088 24.0645 16.0746C23.7062 16.0225 23.3721 16.235 23.3091 16.5516C23.2462 16.8682 23.4786 17.1762 23.8369 17.2282Z" fill="#242424" fill-opacity="0.4"/>
<path d="M34.3532 21.4048C33.9222 19.1408 32.7311 17.0807 30.9007 15.4413C29.0704 13.8018 26.7703 12.7349 24.2427 12.3489C23.8892 12.2925 23.5551 12.5094 23.4921 12.826C23.434 13.1469 23.6713 13.4462 24.0296 13.5026C26.2861 13.8452 28.344 14.8037 29.9807 16.2653C31.6174 17.7313 32.6826 19.5746 33.0652 21.5957C33.1184 21.8819 33.3944 22.0814 33.7092 22.0814C33.7479 22.0814 33.7818 22.0771 33.8206 22.0727C34.174 22.025 34.4161 21.7214 34.3532 21.4048Z" fill="#242424" fill-opacity="0.4"/>
<circle cx="22.5" cy="22.5" r="21.75" stroke="#242424" stroke-opacity="0.4" stroke-width="1.5"/>
</svg>
